PathFileType	4	(X/Y/Z)	Patient4_TMGait_0pt2_02_right_20.trc.trc
DataRate	CameraRate	NumFrames	NumMarkers	Units	OrigDataRate	OrigDataStartFrame	OrigNumFrames
45.602605863192	45.602605863192	5	33	mm	45.602605863192	1	       141
Frame#	Time	R.Midfoot.Superior			Sacral			L.Shoulder			Chest			R.Shoulder			Neck			R.ASIS			L.ASIS			R.Thigh.Superior			R.Thigh.Lateral			R.Thigh.Inferior			R.Patella			L.Thigh.Superior			L.Thigh.Lateral			L.Thigh.Inferior			L.Patella			L.Shank.Superior			L.Shank.Lateral			L.Shank.Inferior			R.Shank.Superior			R.Shank.Lateral			R.Shank.Inferior			R.Heel			R.Midfoot.Lateral			R.Toe			L.Heel			L.Midfoot.Lateral			L.Midfoot.Superior			L.Toe			L.Elbow			L.Wrist			R.Elbow			R.Wrist			
		X1	Y1	Z1	X2	Y2	Z2	X3	Y3	Z3	X4	Y4	Z4	X5	Y5	Z5	X6	Y6	Z6	X7	Y7	Z7	X8	Y8	Z8	X9	Y9	Z9	X10	Y10	Z10	X11	Y11	Z11	X12	Y12	Z12	X13	Y13	Z13	X14	Y14	Z14	X15	Y15	Z15	X16	Y16	Z16	X17	Y17	Z17	X18	Y18	Z18	X19	Y19	Z19	X20	Y20	Z20	X21	Y21	Z21	X22	Y22	Z22	X23	Y23	Z23	X24	Y24	Z24	X25	Y25	Z25	X26	Y26	Z26	X27	Y27	Z27	X28	Y28	Z28	X29	Y29	Z29	X30	Y30	Z30	X31	Y31	Z31	X32	Y32	Z32	X33	Y33	Z33	

1	44.260000000000	971.881005398536	115.796480407919	591.697142623035	952.220670818625	996.116115150410	393.078048732694	1162.361199047196	1412.772655166383	204.811309842949	1258.070266866496	1338.560396438766	367.462397391123	1178.935624637108	1421.113816984074	538.361253464773	1142.616771283296	1476.960416168303	362.451695125267	1176.271296799248	924.401385799558	512.937431812334	1169.227898359226	938.795782536036	239.892656574531	1213.654430926593	721.421766248346	502.119669058226	1132.534106768540	619.191392518474	577.074973663622	1210.999656164655	553.976718112088	505.965508272231	1202.381704625968	449.649253240053	532.080022681905	1232.829314201596	744.737770332655	289.490228352302	1167.375805493441	611.111939471342	235.186336578893	1259.646844428439	549.699549173129	308.225303746426	1267.609969441083	472.913746021999	318.632808902203	1225.038891080407	398.548120387949	314.182991629305	1118.686817534190	298.094453606758	265.733578587514	1145.637431528120	183.328618351572	341.135748096310	1128.213586833770	382.998339001376	544.622163178273	1014.036435686832	343.202801995001	616.877420692960	998.131456499302	231.461153752692	570.911241349466	795.303503493723	149.493576390946	563.876054826678	867.596669616892	101.521074783370	633.100329305022	1053.053712788823	34.745558596299	612.480122877940	996.079328381389	41.339755556396	383.995092316263	1068.875599578477	37.321429722849	303.323276451873	1153.866226228699	95.911243796967	329.863220271009	1280.576245350361	41.339757451126	298.129134422319	1158.625884990955	1065.725861967133	70.229535761265	1228.294301132879	812.269301299341	80.672612212407	1231.749596147607	1071.647626221005	656.906442203377	1445.339130343740	918.875108826285	649.939598077467	
2	44.281928571429	975.238725432619	121.778292656474	589.182632222328	949.681373051353	994.417943906037	388.435379964069	1164.608215345285	1411.827085861314	204.629055258080	1256.846855888814	1336.619814355445	368.733243771288	1174.684027681687	1418.197553668464	538.796832550957	1142.136341039491	1475.419128809206	362.363401408155	1172.893036094273	923.241734301378	511.100620836311	1168.925862301387	937.527941325797	237.484871789058	1217.493799825369	724.691048783390	498.776494489801	1141.155760679622	620.191027891473	574.454058073473	1222.010797219620	557.676826096031	503.359688295559	1216.193516571895	451.814506326740	530.230862782594	1232.377438196925	743.525957460390	286.979293721641	1166.318442684551	609.784500301720	233.173721630091	1258.161019795203	548.408151411121	307.086482739892	1265.995131112535	471.618931804683	317.881448008884	1222.871124591568	397.199703655904	313.608246017792	1116.225699639768	297.241281153916	264.877191660144	1142.005109404125	182.638056526436	340.837707658003	1140.397286527059	385.077264277767	542.348646031304	1024.418172597110	348.727951977286	613.590440769610	1005.804180571738	237.544332278653	568.051714726893	801.639273471357	165.007564814068	558.527101922313	869.891080999234	113.462627864602	628.807233826807	1050.547073709530	33.424388752022	611.634709066047	991.635364765561	41.237406918286	383.818417783703	1064.467433944539	37.168217300451	303.140727106865	1149.426044451561	95.762136187447	329.781144425159	1276.194375998189	41.236194876723	298.117417282698	1172.706108744119	1066.186897819683	68.746601877856	1253.625021468959	816.780928981773	81.357841561395	1205.691019650843	1066.646664139576	654.892695555684	1395.837907739697	893.424439059756	653.038976616320	
3	44.303857142857	979.272842643699	127.746321341306	586.633395197682	947.100991053935	992.996724981295	383.798313176826	1166.950219149046	1411.124608032279	204.575243657614	1255.568652780290	1334.918000591795	370.175115815865	1170.211441733159	1415.522558661123	539.289483807575	1141.627264335490	1474.107002455533	362.371536174077	1169.444980933886	922.359553747984	509.351766541400	1168.550446467881	936.473997064359	235.219857038902	1221.230093014872	728.373958332535	495.417904247618	1149.812993571373	621.640726959478	571.849565756964	1232.982606520151	561.864084304473	500.735145705866	1230.080969248412	454.500048628432	528.378828850104	1231.675442219281	742.350096107236	284.546300671226	1164.945706545648	608.588720589942	231.222069886475	1256.284386538053	547.180289423605	305.990062989556	1263.943863248604	470.431942668947	317.179923208958	1220.305869858808	395.971102906916	313.060544915567	1113.445552861460	296.437240487163	264.024271017334	1138.121029341515	182.005660496568	340.541158068669	1152.745669806336	387.552813303392	540.119300137334	1035.006077699144	354.425819395633	610.389047386496	1013.856699475737	243.696053674200	565.277487036232	808.337811123501	179.966359856164	553.534749315071	872.898586397579	124.946632410286	624.679362816242	1049.110644136457	32.301092184718	610.438553559115	987.010826745351	41.134003749764	383.637645247578	1059.884496307516	37.016885088851	302.952404250436	1144.809006806540	95.621285913099	329.688751296099	1271.641805647950	41.143231734814	298.103069171396	1187.049604670314	1067.090448232063	67.332031833571	1280.016790637972	822.359959094836	82.314501974844	1178.512983168077	1062.496345999396	652.854820998096	1344.053653584345	869.374500662027	655.663590195451	
4	44.325785714286	984.310332598786	133.373844559694	584.252029158523	944.562543861871	992.035728647913	379.345113677893	1169.344117057016	1410.795880171689	204.709018923945	1254.256557926882	1333.631468008540	371.812492332029	1165.598006534238	1413.323118530051	539.838589023575	1141.094533930500	1473.182319054049	362.512036971297	1166.007626653945	921.914123803355	507.813177506124	1168.095990374227	935.770581029724	233.262355313883	1224.623698535690	732.474900501656	492.213306661251	1158.094945340442	623.648929554262	569.422350350309	1243.382530532019	566.541488257485	498.233803134017	1243.443771373864	457.814365176088	526.640299492421	1230.635255129747	741.276163096380	282.334113220279	1163.151839698548	607.636665639788	229.431723462005	1253.888502886296	546.091491552633	304.997425977433	1261.307358875109	469.449189722568	316.575477873862	1217.240002006560	394.970799873741	312.566024254588	1110.290138210696	295.736186906796	263.207522379816	1134.008361122074	181.484221175681	340.257669831612	1164.813553786712	390.472744957578	538.089598683414	1045.493138827743	360.038433148410	607.497821546934	1022.245803301668	249.599710777710	562.801498054109	815.498950209155	193.306625661040	549.282992069139	877.013210554283	135.183931597856	621.032490270219	1049.511219527633	31.490537326882	608.988535336551	982.296848163759	41.031959379898	383.457777930880	1055.218429036415	36.872927262186	302.763079412985	1140.107064549575	95.497193366506	329.584711762929	1267.009400209396	41.067830807454	298.087329432742	1201.236227063833	1068.596303935607	66.085932090459	1306.908291552156	829.329908773226	83.622916087862	1150.827135176984	1059.777608515861	650.827843084911	1291.145424034106	848.325813571421	657.510592414580	
5	44.347714285714	990.739241174191	138.323559846970	582.279255041513	942.134993806129	991.680339996620	375.213701171590	1171.758424967776	1410.937985748366	205.078327022743	1252.924495665055	1332.902235268671	373.667186549607	1160.911199647852	1411.801044440500	540.437441656276	1140.540680550574	1472.772882049751	362.806759247904	1162.626619605907	922.028848317971	506.594301790716	1167.569662964120	935.526531908421	231.754049885585	1227.452050353680	736.965726738334	489.334263850009	1165.605231024257	626.273828620023	567.331690436892	1252.721822556804	571.665106875996	496.010007696013	1255.732741520145	461.820252623563	525.144781195373	1229.183541070630	740.357071467094	280.460492175823	1160.844094304612	607.020931265479	227.880287595671	1250.855687241455	545.201298413522	304.156155569705	1257.946345325393	468.747407525990	316.102430391359	1213.575635237992	394.284733040418	312.143027192066	1106.701873206914	295.181122032906	262.450222890100	1129.676268814040	181.116594906996	339.995026158151	1176.213125787182	393.843971814262	536.421431268408	1055.638504353797	365.272187714046	605.145997215052	1031.000668067471	254.917864597462	560.846625823741	823.318515552995	203.982022548580	546.126012924521	882.686493961496	143.414595721794	618.188434414249	1052.557343837151	31.095132723097	607.482090167487	977.560053923156	40.932712466462	383.283029035390	1050.536051415958	36.739865166861	302.576733482286	1135.387207559426	95.396204808314	329.467991277346	1262.362911617543	41.015634831369	298.071151833041	1214.947365258803	1070.824812298919	65.094985086316	1333.843889516635	837.990282365819	85.341655066246	1123.163097915948	1058.975507512771	648.815507544937	1238.182608400503	831.563701915502	658.344615439642	
